<?xml version="1.0" standalone="no"?><!DOCTYPE svg PUBLIC "-//W3C//DTD SVG 1.1//EN" "http://www.w3.org/Graphics/SVG/1.1/DTD/svg11.dtd"><svg t="1558148761579" class="icon" style="" viewBox="0 0 1024 1024" version="1.1" xmlns="http://www.w3.org/2000/svg" p-id="1310" xmlns:xlink="http://www.w3.org/1999/xlink" width="200" height="200"><defs><style type="text/css"></style></defs><path d="M9.8760639 512.5576043C9.8760639 235.67772417 235.11731769 10.43647038 512.00420328 10.43647038c276.87988013 0 502.11973283 225.2412527 502.11973282 502.12113392 0 276.88688559-225.2412527 502.1267372-502.11973282 502.12673721C235.11731769 1014.6857426 9.8760639 789.44448988 9.8760639 512.5576043L9.8760639 512.5576043zM942.39614835 512.5576043c0-237.32501184-193.06833432-430.39054398-430.39054398-430.39054398-237.33061513 0-430.39754944 193.06693323-430.39754944 430.39054398 0 237.32921404 193.06693323 430.39614835 430.39754944 430.39614836C749.32781295 942.95515266 942.39614835 749.88821943 942.39614835 512.5576043L942.39614835 512.5576043zM572.11196844 717.06803227l179.61858628-177.64455592c10.61689485-10.47539213 13.2732202-25.9678208 7.99559463-38.98745742-0.32223383-0.82099553-1.11100533-1.46686321-1.50328943-2.25983797-1.64899542-3.33301597-3.44229465-6.67163523-6.20789977-9.4680622-0.03082186-0.03222295-0.07145136-0.03222295-0.1022743-0.07145136-0.03922841-0.03222295-0.03922841-0.07285245-0.07285245-0.10927868L573.72453763 309.92033456c-13.98633705-14.02696655-36.68839104-14.05918951-50.70835322-0.07705573-7.03449857 6.99386907-10.54684458 16.21535316-10.54684458 25.39340448 0 9.14863055 3.47451868 18.32808404 10.46978886 25.32195311l115.77571339 116.13717564L296.8054291 476.69581206c-19.83277457 0-35.86879769 16.06824607-35.8687977 35.86319333 0 19.80055162 16.03462204 35.86879769 35.8687977 35.8687977l343.81199197 0-118.93220151 117.64186616c-7.10454885 6.99386907-10.65191998 16.2489772-10.65191998 25.49707988 0 9.11220432 3.44229465 18.22440866 10.36611345 25.21827771C535.31149653 730.87644038 558.0177538 731.01794309 572.11196844 717.06803227L572.11196844 717.06803227zM572.11196844 717.06803227" p-id="1311"></path></svg>