<?xml version="1.0" standalone="no"?><!DOCTYPE svg PUBLIC "-//W3C//DTD SVG 1.1//EN" "http://www.w3.org/Graphics/SVG/1.1/DTD/svg11.dtd"><svg t="1555314639378" class="icon" style="" viewBox="0 0 1041 1024" version="1.1" xmlns="http://www.w3.org/2000/svg" p-id="3151" xmlns:xlink="http://www.w3.org/1999/xlink" width="203.3203125" height="200"><defs><style type="text/css"></style></defs><path d="M133.538389 745.411027l765.523087 0c71.846328 0 126.014018-57.909921 126.014018-134.746914 0-65.047482-38.421055-117.069299-94.944396-130.980123-14.242376-69.647243-75.213006-120.683617-146.95291-120.683617-21.212114 0-42.100864 4.513804-61.239759 13.162788-36.081777-60.058864-99.945293-96.667643-170.59947-96.667643-110.11491 0-199.739137 90.369194-199.739137 201.51355-148.569734-45.877887-243.63181-7.031137-284.654109 16.894785C25.923416 517.823636 0 562.302663 0 610.664114 0 684.971493 59.890019 745.411027 133.538389 745.411027L133.538389 745.411027zM133.538389 745.411027" p-id="3152" transform="matrix(-1,0,0,0.9999999,1025.123,-0.0003185272)" xmlns="http://www.w3.org/2000/svg">
</path>
</svg>