<?xml version="1.0" standalone="no"?><!DOCTYPE svg PUBLIC "-//W3C//DTD SVG 1.1//EN" "http://www.w3.org/Graphics/SVG/1.1/DTD/svg11.dtd"><svg t="1559633139377" class="icon" style="" viewBox="0 0 1024 1024" version="1.1" xmlns="http://www.w3.org/2000/svg" p-id="1961" xmlns:xlink="http://www.w3.org/1999/xlink" width="200" height="200"><defs><style type="text/css"></style></defs><path d="M0.455111 715.776h1021.610667V59.050667H0.455111v656.725333zM488.675556 936.96v-238.648889h45.283555v238.648889h211.512889v45.226667H277.560889v-45.226667h211.057778zM43.406222 673.28V101.546667h935.708445v571.733333H43.406222z" p-id="1962"></path><path d="M456.647111 484.977778l71.907556-223.232 32.256-0.056889-71.793778 223.516444-32.369778-0.227555z m-251.790222-103.537778l145.976889-52.963556-0.170667 27.875556-93.582222 37.262222 92.956444 40.675556v26.737778L204.8 404.252444v-22.869333z m467.626667-50.631111l145.976888 52.963555v22.869334l-145.180444 56.775111v-26.737778l92.956444-40.675555-93.582222-37.319112-0.170666-27.875555z" p-id="1963"></path></svg>