<?xml version="1.0" standalone="no"?><!DOCTYPE svg PUBLIC "-//W3C//DTD SVG 1.1//EN" "http://www.w3.org/Graphics/SVG/1.1/DTD/svg11.dtd"><svg t="1558148036803" class="icon" style="" viewBox="0 0 1024 1024" version="1.1" xmlns="http://www.w3.org/2000/svg" p-id="1274" xmlns:xlink="http://www.w3.org/1999/xlink" width="200" height="200"><defs><style type="text/css"></style></defs><path d="M315.33397333 712.84394667c-30.37980445 0-28.36821333 43.07057778 0.54044445 45.82968888 12.93653333 1.23448889 26.60238222 0 39.58442667 0h54.58488888c13.20277333 0 11.96032-1.28455111 11.96145778 12.22314667 0.00113778 16.08021333-0.98076445 32.48583111 0.00455111 48.53532445 1.85230222 30.18069333 42.74062222 32.35157333 45.80579556 1.63271111 1.42677333-14.29617778 0-29.46503111 0-43.82151111 0-12.13212445-4.32469333-17.84490667 7.90072889-18.03377778 32.00682667-0.49379555 64.75548445 2.47352889 96.65991111 0 23.29486222-1.80679111 36.57614222-33.05585778 10.91697777-43.99786667-10.35719111-4.41685333-25.62616889-1.83068445-36.47146666-1.83068444h-57.07889778c-5.04376889 0-13.27559111 1.65205333-18.02012444 0-5.78332445-2.01272889-1.81248 1.71235555-3.90712889-4.40206223-1.70097778-4.96753778-3.09248-38.39203555 0.13539555-41.92824888 3.35758222-3.67729778 31.54830222 0 36.40433778 0h59.31804444c18.82680889 0 44.08433778-12.94222222 28.69361778-35.61358222-10.04885333-14.80362667-34.68970667-10.20472889-49.98257778-10.2047289h-47.22005333c28.23054222-50.88597333 57.21998222-101.41923555 84.71665778-152.70229333 7.60376889-14.18126222 8.42069333-33.57582222-9.9328-40.31601777-15.33952-5.63427555-24.70684445 4.94933333-31.41973333 16.6138311l-49.13152 85.37429334-43.41191112 75.43580444-91.44092444-161.11843555c-4.16199111-7.33297778-8.23864889-17.6128-15.17226666-22.85340445-24.29952-18.36714667-42.77703111 14.70122667-32.82261334 35.68184889 13.13564445 27.68782222 30.21824 54.11498667 45.15498667 80.86300445l46.07431111 82.50823111c-26.47267555 0-53.29692445-1.35623111-79.72636444 0-20.58467555 1.05699555-37.14161778 24.32796445-17.6594489 40.41386667 8.96341333 7.40124445 22.17301333 5.38055111 33.04448 5.3805511h52.71324445c5.95740445 0 30.29219555-3.87413333 35.01624889 0 4.11875555 3.3792 0.83854222 28.19754667 0.83854222 34.31879112 0 13.3632 1.02286222 12.01152-11.96032 12.01152h-94.71089778z" p-id="1275"></path><path d="M855.45870222 892.75733333c-4.45781333-13.13792-18.73806222-24.89002667-31.24906667-17.19864888-20.93624889 12.87054222-36.36565333 26.71388445-62.18410666 29.09411555-6.76295111 0.62350222-13.63626667 0.37774222-20.42083556 0.37888l-96.47217778 0.00682667-322.09009777 0.02389333-132.40661333 0.01024c-17.90634667 0.00113778-36.99484445 1.88074667-54.8408889 0.00455111-35.58968889-3.74215111-58.85155555-41.80081778-67.97312-72.79047111-6.52401778-22.16391111-5.49205333-45.07648-3.82293333-67.84910222 3.86503111-52.74055111 14.27911111-105.22168889 29.58791111-155.80046223 38.72426667-127.94197333 113.09624889-243.06346667 236.72035556-301.61237333l26.52728889-12.56334222c-36.37475555-29.75971555-85.40387555-55.17084445-88.12088889-107.38119111-1.66229333-31.94652445 31.65525333-47.12220445 59.20199111-40.02474667 10.71104 2.76024889 19.21137778 9.07946667 28.13383111 15.23825778 9.87249778 6.81528889 8.71082667 4.77297778 16.13710222-4.33379555 19.71541333-24.17777778 46.93219555-34.12992 78.22108445-32.60757334 17.35793778 0.84423111 35.80586667 5.38055111 50.29774222 15.33041778 10.71786667 7.35914667 14.74104889 16.93013333 22.63836445 26.54776889 6.48305778 7.89504 5.94830222 4.77980445 15.41461333-1.32892445 12.00924445-7.74826667 23.58840889-13.90364445 38.15310222-15.74456888 27.65141333-3.49297778 66.02296889 5.37827555 68.06755555 38.12124444 2.12536889 34.03662222-22.27655111 56.19712-48.50005333 73.97717333-18.48206222 12.53148445-37.15413333 24.68750222-55.49511111 37.46133333 25.54311111 10.54606222 48.49891555 20.30933333 71.56622222 35.81610667 37.92668445 25.49532445 72.97251555 55.25845333 102.17472 90.52501333 14.21312 17.16451555 27.00970667 35.47136 38.53425778 54.53824 11.47790222 18.99064889 20.31160889 46.46229333 47.83445334 34.89678223 10.16149333-4.27008 21.24003555-13.86268445 22.14798222-25.63185778 0.90794667-11.77941333-9.98513778-24.73984-15.76391112-34.40412445-12.86940445-21.52220445-27.20312889-42.19562667-43.07968-61.61180444-33.91715555-41.47882667-75.06602667-76.99342222-122.09265777-102.84032 22.66339555-20.60401778 40.42410667-46.91057778 48.00625777-76.79772444 5.46929778-21.55975111 7.99061333-49.38638222-1.09112888-70.30215112-9.93962667-22.89095111-31.43793778-38.80504889-54.38008889-47.13813333-13.10947555-4.7616-26.96760889-7.28177778-40.89856-7.78126222-17.06439111-0.61326222-32.06599111 5.65020445-48.37717333 6.81415111-6.81528889 0.48696889-1.01489778 2.07644445-8.42524445-1.32664889-2.38023111-1.09340445-5.60469333-4.43392-7.59352889-5.83224889-5.36007111-3.76832-11.06944-7.0656-16.96540444-9.91914666-14.12664889-6.83804445-29.47754667-11.09902222-45.01504-13.15043556-32.20707555-4.25187555-66.82737778 0.48128-95.46069334 16.32597334-4.38272 2.42460445-11.80899555 10.15466667-16.45909333 11.02165333-5.20988445 0.97166222-17.82442667-5.71050667-23.75224889-6.69582223-15.61486222-2.59640889-31.82819555-1.92625778-47.14040889 2.11399112-24.91505778 6.57294222-47.68654222 22.27768889-60.55822222 44.87054222-13.92526222 24.44174222-10.34467555 47.60462222-5.72871111 74.02837333 5.33731555 30.55502222 20.9408 57.37472 46.13916444 75.73048889-125.84846222 69.20305778-198.38293333 207.62737778-235.38915555 341.47669334-14.77063111 53.42549333-25.29962667 109.01390222-26.86407111 164.54428444-1.75445333 62.30926222 26.51591111 134.51264 86.82723555 161.30616889 25.34058667 11.25831111 52.32753778 9.51751111 79.2576 9.51751111h556.38926223c35.11637333 0 67.82862222-1.02172445 100.1210311-18.60039111 18.75854222-10.21041778 38.77319111-24.10382222 30.51178667-48.45340445z" p-id="1276"></path><path d="M1013.74520889 719.58072889l-99.22446222-77.33703111c-3.93102222-3.06403555-7.91779555-7.12476445-12.48142222-9.27402667-9.60170667-4.52266667-21.00906667-1.58947555-25.0527289 8.96910222-3.23015111 8.43320889 0.75207111 14.12551111 5.31569778 20.78378667 10.94656 15.97212445 21.43345778 32.27761778 32.14449778 48.40789333l-122.71843556 2.53155556-80.31800888 1.65660444c-14.63978667 0.30264889-38.56270222-3.58058667-43.52341334 14.70691556-3.92533333 14.47139555 1.40515555 30.79395555 17.28625778 32.80782222 2.93205333 0.37205333 6.15992889 0 9.10336 0h296.26823111c3.97425778 0 8.33763555 0.50517333 12.29141333 0 18.39445333-2.34723555 25.87761778-31.04995555 10.90901334-43.25262222z" p-id="1277"></path></svg>