<?xml version="1.0" standalone="no"?><!DOCTYPE svg PUBLIC "-//W3C//DTD SVG 1.1//EN" "http://www.w3.org/Graphics/SVG/1.1/DTD/svg11.dtd"><svg t="1558146531112" class="icon" style="" viewBox="0 0 1024 1024" version="1.1" xmlns="http://www.w3.org/2000/svg" p-id="1271" xmlns:xlink="http://www.w3.org/1999/xlink" width="200" height="200"><defs><style type="text/css"></style></defs><path d="M519.28177778 1029.00622222h-36.40888889c-65.536-7.28177778-131.072-21.84533333-189.32622222-50.97244444-65.536-29.12711111-116.50844445-72.81777778-160.19911112-123.79022223-43.69066667-50.97244445-80.09955555-109.22666667-101.94488888-174.76266666-21.84533333-65.536-29.12711111-131.072-29.12711112-196.608 7.28177778-65.536 21.84533333-131.072 50.97244445-189.32622222 29.12711111-65.536 72.81777778-116.50844445 123.79022222-160.19911112 50.97244445-43.69066667 109.22666667-80.09955555 174.76266667-101.94488888C402.77333333 2.27555555 461.02755555-5.00622222 519.28177778-5.00622222h36.40888889c65.536 7.28177778 131.072 21.84533333 189.32622222 50.97244444 65.536 29.12711111 116.50844445 72.81777778 160.19911111 123.79022223 50.97244445 58.25422222 94.66311111 131.072 109.22666667 218.45333333 7.28177778 14.56355555 0 29.12711111-7.28177778 36.40888889-7.28177778 7.28177778-14.56355555 7.28177778-21.84533334 7.28177778-7.28177778 0-21.84533333-7.28177778-21.84533333-14.56355556 0 0 0-7.28177778-7.28177777-7.28177778-14.56355555-72.81777778-50.97244445-131.072-101.9448889-189.32622222-80.09955555-87.38133333-189.32622222-145.63555555-305.83466666-152.91733334h-29.12711111c-50.97244445 0-109.22666667 7.28177778-160.19911111 29.12711112-43.69066667 21.84533333-94.66311111 43.69066667-131.072 80.09955555C133.34755555 257.13777778 82.37511111 366.36444445 75.09333333 490.15466667c-7.28177778 116.50844445 29.12711111 233.01688889 109.22666667 320.39822222 80.09955555 87.38133333 189.32622222 145.63555555 305.83466667 152.91733333h29.12711111c50.97244445 0 109.22666667-7.28177778 160.19911111-29.12711111 50.97244445-21.84533333 94.66311111-43.69066667 138.35377778-80.09955556 72.81777778-65.536 116.50844445-145.63555555 138.35377778-240.29866666 0-7.28177778 7.28177778-14.56355555 7.28177777-21.84533334 7.28177778-7.28177778 14.56355555-7.28177778 21.84533333-7.28177777 7.28177778 0 14.56355555 0 21.84533334 7.28177777 7.28177778 0 14.56355555 7.28177778 14.56355556 21.84533334-21.84533333 109.22666667-80.09955555 211.17155555-160.19911112 283.98933333-50.97244445 43.69066667-109.22666667 80.09955555-174.76266666 101.94488889-58.25422222 21.84533333-116.50844445 29.12711111-167.48088889 29.12711111z m-50.97244445-269.42577777V482.87288889h-7.28177778l-65.536 21.84533333c-7.28177778 0-21.84533333 7.28177778-36.40888888 7.28177778-14.56355555 7.28177778-36.40888889 7.28177778-43.69066667 14.56355555v145.63555556H235.29244445V446.464h80.09955555v36.40888889h7.28177778c7.28177778 0 21.84533333-7.28177778 29.12711111-7.28177778 14.56355555 0 29.12711111-7.28177778 36.40888889-7.28177778 21.84533333-14.56355555 50.97244445-21.84533333 72.81777777-29.12711111v-58.25422222c-43.69066667 0-87.38133333 7.28177778-123.79022222 7.28177778H249.856l-14.56355555-58.25422223H366.36444445c43.69066667 0 87.38133333-7.28177778 131.072-14.56355555L628.50844445 293.54666667c43.69066667-7.28177778 80.09955555-21.84533333 123.79022222-29.12711112 7.28177778 14.56355555 14.56355555 29.12711111 14.56355555 43.69066667v7.28177778s0 7.28177778 7.28177778 7.28177778c0 7.28177778 0 7.28177778 7.28177778 14.56355555 0 0 0 7.28177778 7.28177777 7.28177778-36.40888889 7.28177778-72.81777778 14.56355555-116.50844444 14.56355556-29.12711111 0-65.536 7.28177778-94.66311111 7.28177778h-29.12711111v43.69066666h87.38133333c36.40888889 0 65.536 7.28177778 87.38133333 21.84533334 21.84533333 7.28177778 36.40888889 21.84533333 50.97244445 29.1271111 14.56355555 14.56355555 21.84533333 21.84533333 21.84533333 36.4088889 7.28177778 14.56355555 7.28177778 29.12711111 7.28177778 36.40888888v116.50844445c-7.28177778 14.56355555-7.28177778 21.84533333-14.56355556 29.12711111-7.28177778 7.28177778-14.56355555 14.56355555-29.1271111 21.84533333h-43.69066667c-14.56355555 0-29.12711111-7.28177778-43.69066667-7.28177777-14.56355555-7.28177778-21.84533333-7.28177778-29.12711111-14.56355556-7.28177778-7.28177778-14.56355555-7.28177778-21.84533333-14.56355556l7.28177778-36.40888888c14.56355555 7.28177778 29.12711111 14.56355555 36.40888888 14.56355555h14.56355556c7.28177778 0 7.28177778 0 14.56355556-7.28177778 7.28177778 0 7.28177778-7.28177778 14.56355555-14.56355555 0-7.28177778 7.28177778-14.56355555 7.28177778-21.84533334v-58.25422222-14.56355556V512c0-7.28177778 0-14.56355555-7.28177778-14.56355555-7.28177778-7.28177778-14.56355555-14.56355555-29.12711111-21.84533334-14.56355555-7.28177778-29.12711111-7.28177778-43.69066667-7.28177778H592.09955555 548.40888889v283.98933334l-80.09955556 7.28177778z m0 0" p-id="1272"></path></svg>