<?xml version="1.0" standalone="no"?><!DOCTYPE svg PUBLIC "-//W3C//DTD SVG 1.1//EN" "http://www.w3.org/Graphics/SVG/1.1/DTD/svg11.dtd"><svg t="1557470345722" class="icon" style="" viewBox="0 0 1024 1024" version="1.1" xmlns="http://www.w3.org/2000/svg" p-id="1031" xmlns:xlink="http://www.w3.org/1999/xlink" width="200" height="200"><defs><style type="text/css"></style></defs><path d="M512 1.50690004C230.03232682 1.50690004 1.50690004 230.03232682 1.50690004 512s228.52542677 510.49309996 510.49309996 510.49309996 510.49309996-228.52542677 510.49309996-510.49309996S793.96767318 1.50690004 512 1.50690004z m-78.56807866 712.79593196H195.93298304V313.18686692h228.12660404v69.89368419H281.38075385v94.52098805h132.60855917v69.69427282h-132.60855917v97.11333582h151.95146181v69.8936842z m422.25356999 0H768.24360682L598.34512199 454.86864331c-8.77410015-13.4602673-15.1552639-24.32818679-19.14349124-32.60375854h-1.29617389c1.59529095 13.85909001 2.29323073 35.09640063 2.29323072 63.91134317v228.12660406h-81.06072076V313.18686692h93.22481414l163.61702678 252.25537949c10.86791951 16.75055482 17.54820031 27.31935731 19.9411367 31.80611306h1.29617391c-1.69499663-9.67145131-2.59234777-28.11700278-2.59234778-55.43636009V313.18686692h81.06072076v401.11596508z" p-id="1032"></path></svg>