<?xml version="1.0" standalone="no"?><!DOCTYPE svg PUBLIC "-//W3C//DTD SVG 1.1//EN" "http://www.w3.org/Graphics/SVG/1.1/DTD/svg11.dtd"><svg t="1557457489072" class="icon" style="" viewBox="0 0 1024 1024" version="1.1" xmlns="http://www.w3.org/2000/svg" p-id="1654" xmlns:xlink="http://www.w3.org/1999/xlink" width="200" height="200"><defs><style type="text/css"></style></defs><path d="M345.6 661.1c0 20.8 5.8 31.2 17.4 31.2 3.3 0 12.1-2.9 26.5-8.7 14.4-5.8 28.3-13.9 41.7-24.3-10.8-30.6-19-65.9-24.5-105.8-40.7 38.7-61.1 74.6-61.1 107.6zM483.3 515.2c2.6 26.7 7 52.4 13.2 77.1 18.4-27.7 32.7-56.7 43.1-86.9-17-0.6-35.8 2.7-56.3 9.8z" p-id="1655"></path><path d="M512 0C229.2 0 0 229.2 0 512s229.2 512 512 512 512-229.2 512-512S794.8 0 512 0z m219.1 729.6c-35.6 34.5-84 54.7-145.1 60.9l-32.1-75.2c100.9-12.8 151.4-49.2 151.4-109.2 0-20.4-7.5-39.2-22.5-56.4-15-17.2-35.4-29.5-61.3-36.9-26.1 71.4-57.6 128.1-94.5 170.3 3.9 9.6 9.9 22.5 18 38.8l-68.8 37.6c-6.1-10.6-10.7-19.2-13.8-25.7-38.9 24.9-73.3 37.3-103.1 37.3-26.7 0-49.1-10.2-67.3-30.6-18.1-20.4-27.2-46.1-27.2-77.1 0-36.5 12-73.1 36.1-109.9 24.1-36.8 57.4-68.1 100-94 0-24.3 0.7-48.2 2.1-71.9-17.3 0.8-46.2 1.2-86.6 1.2l-5.5-78.3c31.4 1 65.3 1.2 101.8 0.6 7.3-42.2 13.9-74.4 19.6-96.6l80.7 10.7c-8.2 27.9-14.4 55-18.7 81.4 76-4.9 144.5-12.3 205.2-22.3l8.3 76.5c-76.1 11-151.2 18.9-225.4 23.5-1.8 19.4-2.8 35.5-2.8 48.3 32.2-6.1 60.7-8.6 85.3-7.3 2.9-9.8 6-21.9 9.5-36.4l78.3 9.2-8.9 39.5c35.7 8.8 68 28.5 96.9 59.2 28.9 30.7 43.4 67.1 43.4 109.3 0.4 47.9-17.4 89.1-53 123.5z" p-id="1656"></path></svg>