<?xml version="1.0" standalone="no"?><!DOCTYPE svg PUBLIC "-//W3C//DTD SVG 1.1//EN" "http://www.w3.org/Graphics/SVG/1.1/DTD/svg11.dtd"><svg t="1559633129538" class="icon" style="" viewBox="0 0 1024 1024" version="1.1" xmlns="http://www.w3.org/2000/svg" p-id="1741" xmlns:xlink="http://www.w3.org/1999/xlink" width="200" height="200"><defs><style type="text/css"></style></defs><path d="M298.60042 255.679952c23.597289 0 42.638919-19.04163001 42.638919-42.536544V42.741293A42.587732 42.587732 0 0 0 256.012688 42.79248001v170.24855299c0 23.597289 19.092817 42.638919 42.638919 42.638919z m213.296969 0c23.54610201 0 42.638919-19.04163001 42.638919-42.536544V42.741293a42.587732 42.587732 0 1 0-85.27783801 0v170.24855299c0 23.597289 19.092817 42.638919 42.63891901 42.63891901z m-127.967944-173.831655h42.690106v92.75116599H383.980632V81.848297z m213.348156 0h42.638919v92.75116599h-42.638919V81.848297z m426.38918999 123.105162a127.712008 127.712008 0 0 0-127.916757-127.712008h-85.27783799v97.10207599h72.890541c23.54610201 0 42.79248001 19.092817 42.79248 42.53654501v670.04015401a42.843668 42.843668 0 0 1-42.79248 42.63891899H140.176105a42.741293 42.741293 0 0 1-42.63891901-42.63891899V216.98244598c0-23.494915 19.144004-42.587732 42.63891901-42.58773199h73.09529V77.241451H127.993557A127.81438201 127.81438201 0 0 0 0.0768 205.00464599v691.33402101A127.712008 127.712008 0 0 0 127.993557 1023.999488h767.807664a127.456072 127.456072 0 0 0 127.35369799-121.36479801l0.511872-4.965156V205.00464599z m-298.42124599 50.675306c23.494915 0 42.587732-18.939256 42.587732-42.485357V42.741293a42.587732 42.587732 0 0 0-85.277838 0v170.24855299c0 23.597289 18.939256 42.638919 42.63891901 42.63891901zM255.193693 426.645125h511.871776a42.741293 42.741293 0 0 0 42.638919-42.58773101 42.69010599 42.69010599 0 0 0-42.638919-42.48535799h-511.871776a42.536545 42.536545 0 1 0 0 85.02190199z m511.871776 124.896714h-511.871776a42.587732 42.587732 0 1 0 0 85.124276h511.871776a42.741293 42.741293 0 0 0 42.638919-42.587732 42.741293 42.741293 0 0 0-42.638919-42.48535701z m0 197.68488h-511.871776a42.587732 42.587732 0 1 0 0 85.07308899h511.871776a42.79248001 42.79248001 0 0 0 42.638919-42.69010598 42.638919 42.638919 0 0 0-42.638919-42.38298301z" p-id="1742"></path></svg>