<?xml version="1.0" standalone="no"?><!DOCTYPE svg PUBLIC "-//W3C//DTD SVG 1.1//EN" "http://www.w3.org/Graphics/SVG/1.1/DTD/svg11.dtd"><svg t="1558146561359" class="icon" style="" viewBox="0 0 1024 1024" version="1.1" xmlns="http://www.w3.org/2000/svg" p-id="1271" xmlns:xlink="http://www.w3.org/1999/xlink" width="200" height="200"><defs><style type="text/css"></style></defs><path d="M1012.58215652 674.55475028q0 48.65453966-26.74990309 81.12454883t-74.19312582 32.4363594q-24.63009906 0-46.56838429-10.53172281t-35.46465166-22.84677233-33.95050496-22.84677234-42.66525354-10.53172281q-66.08403683 0-66.08403685 74.49595563 0 23.41878329 9.6232357 69.11232796t9.01757725 69.11232682v2.99464363q-13.22353664 0-19.81848234 0.60565845-20.42413966 1.81697422-58.58060403 6.89777323t-69.41515661 8.10909013-58.88343382 2.99464363q-36.64231993 0-61.87807744-15.91535161T411.73559865 889.59705087q0-22.24111389 10.5317228-42.66525355t22.8467712-33.9505061 22.84677235-35.46465052 10.5317228-46.56838429q0-47.47687139-32.43635939-74.19312696t-81.1245477-26.74990194q-50.47151502 0-85.93616555 27.35556039t-35.46465166 76.61575964q0 25.84141597 9.01757724 49.86585657t20.12131101 38.76212281 20.12130986 31.83070208 9.01757725 30.35020402q0 27.05273173-27.62474154 53.46615751-22.24111389 21.02979811-70.28999624 21.02979812-57.06645959 0-147.20858453-14.43485355-5.4172763-1.21131691-16.52100893-2.38898404t-16.52101006-2.38898517l-7.80626034-1.21131691q-0.60565845 0-1.81697422-0.60565845-1.21131691 0-1.21131691-0.60565732V322.3645218q1.21131691 0.60565845 10.53172281 2.11980288t20.42413967 2.99464363 12.92070798 2.11980402q90.14212494 14.43485355 147.20858453 14.4348524 48.08252985 0 70.28999624-21.02979698 27.62474269-26.44707328 27.62474154-53.46615864 0-13.22353664-9.01757725-30.35020402t-20.12130986-31.83070208-20.12131101-38.76212281T243.5308635 118.72878363q0-49.26019811 35.46465166-76.61575964t86.50817536-27.3555604q48.08252985 0 80.51889038 26.74990308t32.4363594 74.19312583q0 24.63009906-10.53172281 46.56838429t-22.84677233 35.46465166-22.84677235 33.95050496-10.5317228 42.66525354q0 34.25333475 25.2357575 50.16868523t61.87807744 15.91535161q38.45929415 0 108.14363194-9.01757724t97.94838641-10.22889416v1.21131691q-0.60565845 1.21131691-2.11980401 10.53172281t-2.99464363 20.42413966-2.11980288 12.92070798q-14.43485355 90.14212494-14.43485354 147.2085834 0 48.08252985 21.02979811 70.28999623 26.44707328 27.62474269 53.46615751 27.62474269 13.22353664 0 30.35020401-9.01757725t31.83070208-20.121311 38.76212395-20.12130987 49.86585543-9.01757724q49.26019811 0 76.61575965 35.46465052t27.35556153 85.93616555z" p-id="1272"></path></svg>