<?xml version="1.0" standalone="no"?><!DOCTYPE svg PUBLIC "-//W3C//DTD SVG 1.1//EN" "http://www.w3.org/Graphics/SVG/1.1/DTD/svg11.dtd"><svg t="1561450055450" class="icon" viewBox="0 0 1024 1024" version="1.1" xmlns="http://www.w3.org/2000/svg" p-id="2008" xmlns:xlink="http://www.w3.org/1999/xlink" width="200" height="200"><defs><style type="text/css"></style></defs><path d="M1020.13155555 1022.52088889v-78.05155556H942.08l78.05155555 78.05155556zM79.41688889 81.92h195.584v196.38044445l78.05155556 78.05155555V3.86844445H1.36533333l78.05155556 78.05155555z m940.71466666 626.80177778H942.08v-78.05155556H667.76177778V670.15111111l78.05155555 78.05155556v-39.48088889h78.05155556v78.05155555h-39.48088889l156.89955555 156.89955556v-78.05155556h78.05155556V708.72177778h0.79644444z m0 0" p-id="2009"></path><path d="M236.43022222 238.81955555V121.28711111H118.89777778l117.53244444 117.53244444zM432.69688889 3.86844445h78.05155556V81.92h-78.05155556V3.86844445z m235.06488889 0v352.48355555h352.48355555V3.86844445H667.76177778zM942.08 278.18666667H745.81333333V81.92h195.584v196.38044445h0.68266667z m0 0" p-id="2010"></path><path d="M785.18044445 121.28711111h117.53244444v117.53244444H785.18044445V121.28711111z m-78.848 470.016V513.13777778h78.05155555v-78.05155556H588.8v-118.32888889h-78.05155555v117.53244445h-78.05155556l78.05155556 78.05155555h78.05155555v78.05155556h117.53244445v0.91022222zM510.74844445 238.81955555h78.05155555V81.92h-78.05155555v78.05155555h-78.05155556v156.89955556h78.05155556v-78.05155556zM942.08 434.28977778h-78.05155555v78.05155555h-78.05155556v78.05155556h234.95111111v-78.05155556h-78.05155555l-0.79644445-78.05155555z m0 0" p-id="2011"></path></svg>