<?xml version="1.0" standalone="no"?><!DOCTYPE svg PUBLIC "-//W3C//DTD SVG 1.1//EN" "http://www.w3.org/Graphics/SVG/1.1/DTD/svg11.dtd"><svg t="1559633143721" class="icon" style="" viewBox="0 0 1024 1024" version="1.1" xmlns="http://www.w3.org/2000/svg" p-id="2072" xmlns:xlink="http://www.w3.org/1999/xlink" width="200" height="200"><defs><style type="text/css"></style></defs><path d="M34.31654286 1021.72327936l955.36924445 0c17.69530254 0 32.03982222-14.34568477 32.03982222-32.03982222s-14.34568477-32.03982222-32.03982222-32.03982223l-923.32942222 0 0-923.32942222c0-17.69530254-14.34568477-32.03982222-32.03982223-32.03982222s-32.03982222 14.34568477-32.03982222 32.03982222l0 955.36924445C2.27672064 1007.37875968 16.62124032 1021.72327936 34.31654286 1021.72327936z" p-id="2073"></path><path d="M188.83004189 772.36258589c37.48426183 0 67.86500381-34.51912192 67.8650038-77.09247261 0-10.27021938-1.7825792-20.06391922-4.99122176-29.02458368l133.98354602-174.93742933c6.41495495 2.28356551 13.23768946 3.51855502 20.31441238 3.51855502 19.77614336 0 37.56814791-9.61311175 49.97047182-24.94212779l126.50020864 72.05930781c0.40894464 42.17489181 30.62890496 76.23380537 67.84519737 76.23380536 37.48426183 0 67.86616889-34.52028701 67.86616889-77.09363768 0-1.42722845-0.03961287-2.84047587-0.10718777-4.2467328l176.22135239-171.96762909c8.40491918 4.23624704 17.69646763 6.60719389 27.48201188 6.60719389 37.48542691 0 67.86616889-34.51213141 67.86616888-77.09363769 0-42.57451577-30.38074197-77.09247261-67.86616888-77.09247261-37.47028082 0-67.86500381 34.51795683-67.86500381 77.09247261 0 8.77308587 1.30838983 17.19431623 3.6851621 25.05048064l-164.98760818 161.37934165c-11.6019109-10.51954745-26.29479083-16.82381938-42.2948955-16.82381938-18.44911218 0-35.17156921 8.37928733-47.40612096 21.95601636l-129.2218459-73.50284743c-2.39541362-40.10453675-31.77068771-71.80298923-67.68791097-71.80298923-37.47261099 0-67.86616889 34.51912192-67.86616889 77.09363769 0 11.68230173 2.30104178 22.75060395 6.3963136 32.67362816L212.67582521 623.08264619c-7.41925774-3.16320427-15.45251499-4.90617059-23.84578332-4.9061706-37.47261099 0-67.86616889 34.51795683-67.8661689 77.09363769C120.96387299 737.84346397 151.3574309 772.36258589 188.83004189 772.36258589z" p-id="2074"></path></svg>