<?xml version="1.0" standalone="no"?><!DOCTYPE svg PUBLIC "-//W3C//DTD SVG 1.1//EN" "http://www.w3.org/Graphics/SVG/1.1/DTD/svg11.dtd"><svg t="1559633124982" class="icon" style="" viewBox="0 0 1024 1024" version="1.1" xmlns="http://www.w3.org/2000/svg" p-id="1631" xmlns:xlink="http://www.w3.org/1999/xlink" width="200" height="200"><defs><style type="text/css"></style></defs><path d="M990.071467 759.1936c-45.2608 21.026133-58.845867 56.046933-40.823467 105.130667 18.090667 49.015467 4.232533 63.829333-41.7792 44.6464-45.943467-19.319467-78.779733-4.778667-98.577067 43.554133-19.592533 48.264533-39.389867 48.264533-58.9824 0-19.729067-48.469333-52.565333-62.941867-98.5088-43.554133-45.943467 19.182933-59.869867 4.437333-41.915733-44.6464 18.090667-49.083733 4.5056-84.036267-40.7552-105.130667-45.2608-20.957867-45.2608-42.052267 0-63.010133 45.2608-21.026133 58.845867-56.046933 40.7552-105.0624-17.954133-49.083733-4.164267-63.8976 41.915733-44.714667 45.8752 19.319467 78.779733 4.778667 98.5088-43.485867 19.592533-48.264533 39.389867-48.264533 58.9824 0 19.6608 48.196267 52.565333 62.8736 98.577067 43.485867 45.8752-19.182933 59.869867-4.437333 41.7792 44.714667-18.0224 49.015467-4.369067 83.968 40.823467 105.0624 45.192533 21.026133 45.2608 42.052267 0 63.010133z m-210.670934-135.850667c-53.998933 0-97.826133 46.6944-97.826133 104.311467 0 57.685333 43.8272 104.448 97.826133 104.448 54.0672 0 97.826133-46.762667 97.826134-104.448 0-57.617067-43.690667-104.379733-97.826134-104.379733z m-228.010666-169.506133c26.2144 12.834133 50.244267 29.354667 72.977066 47.5136l-65.3312 77.141333c-47.786667-36.2496-106.018133-51.950933-168.96-58.1632C198.929067 501.3504 62.122667 660.002133 62.122667 832.512c0 17.885867 2.321067 35.0208 4.9152 52.0192H3.2768A469.1968 469.1968 0 0 1 0 832.512c0-168.482133 93.934933-313.207467 228.7616-378.6752A265.8304 265.8304 0 0 1 146.295467 260.096C146.295467 116.462933 255.453867 0 390.007467 0c134.621867 0 243.848533 116.5312 243.848533 260.096a265.557333 265.557333 0 0 1-82.466133 193.7408zM211.831467 261.870933c0 104.106667 79.0528 188.416 176.5376 188.416 97.621333 0 176.605867-84.309333 176.605866-188.416 0-103.901867-79.0528-188.416-176.605866-188.416-97.4848 0-176.5376 84.514133-176.5376 188.416z" p-id="1632"></path></svg>