<?xml version="1.0" standalone="no"?><!DOCTYPE svg PUBLIC "-//W3C//DTD SVG 1.1//EN" "http://www.w3.org/Graphics/SVG/1.1/DTD/svg11.dtd"><svg t="1561684281744" class="icon" viewBox="0 0 1024 1024" version="1.1" xmlns="http://www.w3.org/2000/svg" p-id="1829" xmlns:xlink="http://www.w3.org/1999/xlink" width="200" height="200"><defs><style type="text/css"></style></defs><path d="M913.22595555 814.77632L110.84686222 814.77632c-61.02129778 0-110.75584-49.66172445-110.75584-110.53738667L0.09102222 319.76106667c0-60.94848 49.73454222-110.61020445 110.75584-110.61020445L913.22595555 209.15086222c60.94848 0 110.68302222 49.66172445 110.68302223 110.61020445l0 384.55068444C1023.83616 765.18741333 974.17443555 814.77632 913.22595555 814.77632zM110.84686222 254.66197333c-35.97198222 0-65.31754667 29.12711111-65.31754667 65.09909334l0 384.55068444c0 35.97198222 29.34556445 65.17191111 65.31754667 65.17191111L913.22595555 769.48366222c36.11761778 0 65.24472889-29.12711111 65.2447289-65.17191111L978.47068445 319.76106667c0-35.97198222-29.12711111-65.09909333-65.2447289-65.09909334L110.84686222 254.66197333z" p-id="1830"></path><path d="M134.51264 576.51655111c14.19946667 20.53461333 31.89418667 34.73408 52.79288889 42.96248889C207.11196445 627.34336 225.31640889 628.21717333 241.84604445 621.88202667c16.60245333-6.26232889 28.32611555-18.56853333 35.60789333-36.77297778 7.42741333-18.64135111 6.99050667-35.38944-1.38353778-50.38990222C267.84199111 519.71868445 251.96771555 507.48529778 228.52039111 498.23744c-11.28675555-4.36906667-26.79694222-9.61194667-46.60337778-15.43736889l58.03576889-146.07246222 141.26648889 56.14250666L368.69461333 424.98275555 261.06993778 382.23872 228.66602667 463.57617778c11.06830222 3.64088889 19.22389333 6.5536 24.90368 8.73813333 30.14656 11.94211555 50.82680889 28.98147555 61.74947555 51.19089778 10.92266667 22.06378667 10.92266667 46.67619555 0.21845333 73.54595556C304.39651555 624.94037333 286.41052445 643.87299555 261.43402667 653.63057778c-24.97649778 10.26730667-53.52106667 8.81095111-85.56088889-4.00497778-26.94257778-10.63139555-45.58392889-22.57351111-55.99687111-35.97198222L134.51264 576.51655111z" p-id="1831"></path><path d="M375.24821333 610.66808889c23.08323555 13.47128889 47.84128 18.35008 74.34695112 14.56355556 21.11715555-2.83989333 37.13706667-10.34012445 47.98691555-22.35505778 10.92266667-12.16056889 15.07328-26.79694222 12.74311111-44.20039112-5.31569778-38.88469333-35.68071111-54.46769778-91.24067556-46.89464888L393.59829333 515.34961778 389.15640889 483.45543111l24.39395556-3.2768c49.22481778-6.84487111 71.28860445-28.47175111 66.33699555-64.80782222-4.58752-33.71463111-25.77749333-47.91409778-63.35146667-42.67121778C394.98183111 375.46666667 375.90357333 385.58833778 358.79139555 402.62769778L353.76696889 366.07317333C372.33550222 351.72807111 394.98183111 342.69866667 421.70595555 338.91214222c26.06876445-3.42243555 48.05973333 0.43690667 65.60881778 11.94211556 17.69472 11.57802667 28.03484445 28.18048 31.16600889 49.88017777 5.46133333 40.19541333-11.43239111 68.66716445-50.60835555 85.77934223l0.07281778 0.94663111c22.35505778-0.72817778 40.85077333 4.58752 55.63278222 16.16554666 14.78200889 11.50520889 23.30168889 27.01539555 25.99594666 46.96746667C553.36049778 577.97290667 546.58844445 601.56586667 528.96654222 621.29948445S486.22250667 652.97521778 453.16323555 657.48992c-28.98147555 4.00497778-53.08416 1.82044445-72.52650666-6.69923555L375.24821333 610.66808889z" p-id="1832"></path><path d="M733.29322667 350.34453333L612.34289778 646.13034667 571.78339555 646.13034667l114.90645334-274.88711112L532.09770667 371.24323555 532.09770667 336.72760889l201.19552 0L733.29322667 350.34453333z" p-id="1833"></path><path d="M893.41952 528.67527111l-36.11761778 15.80145778 32.03982223 73.54595556-34.80689778 15.29173333-32.25827556-73.69159111-132.09144889 57.96295111-10.19448889-23.15605333 43.61784889-241.60938667 41.50613333-18.13162667 79.6626489 181.53472 36.11761777-15.94709333L893.41952 528.67527111zM810.11598222 531.36952889l-52.28316444-118.62016c-3.64088889-8.44686222-7.64586667-18.20444445-12.01493333-29.34556444l-0.72817778 0.14563555c0.43690667 5.46133333 0 14.27228445-1.31072 26.50567111l-29.05429334 163.11182222L810.11598222 531.36952889z" p-id="1834"></path></svg>