<?xml version="1.0" standalone="no"?><!DOCTYPE svg PUBLIC "-//W3C//DTD SVG 1.1//EN" "http://www.w3.org/Graphics/SVG/1.1/DTD/svg11.dtd"><svg t="1558146511123" class="icon" style="" viewBox="0 0 1024 1024" version="1.1" xmlns="http://www.w3.org/2000/svg" p-id="24963" xmlns:xlink="http://www.w3.org/1999/xlink" width="200" height="200"><defs><style type="text/css"></style></defs><path d="M927.9488 0H99.293867C44.509867 0 0 47.957333 0 102.741333V297.984a99.396267 99.396267 0 0 0 99.328 99.328h30.788267V924.672A99.396267 99.396267 0 0 0 229.444267 1024h561.527466a99.396267 99.396267 0 0 0 99.328-99.328l3.413334-273.988267h-58.231467l-3.413333 273.988267c0 23.995733-17.134933 41.096533-41.096534 41.096533H232.823467c-23.9616 0-41.0624-17.1008-41.0624-41.096533V215.7568h643.754666v434.926933h58.197334V397.312h30.788266a99.396267 99.396267 0 0 0 99.328-99.328V102.741333c3.413333-54.784-41.096533-102.741333-95.914666-102.741333z m41.0624 294.536533c0 23.9616-17.1008 41.096533-41.0624 41.096534h-30.8224V215.722667h23.9616a23.415467 23.415467 0 0 0 23.9616-23.9616c0-13.7216-10.24-23.995733-23.9616-23.995734H109.568a23.415467 23.415467 0 0 0-23.9616 23.995734c0 13.687467 10.24 23.9616 23.9616 23.9616h23.9616v123.2896H99.328c-23.9616 0-41.096533-17.134933-41.096533-41.096534V102.741333c0-23.9616 17.134933-41.096533 41.096533-41.096533h825.207467c23.995733 0 41.096533 17.134933 41.096533 41.096533l3.413333 191.7952z" p-id="24964"></path><path d="M643.413333 421.137067c-3.447467-3.413333-10.308267-3.413333-13.7216-3.413334-10.24 0-20.548267 3.413333-27.374933 13.653334l-88.9856 112.810666-88.9856-112.810666c-6.826667-10.24-17.066667-13.653333-27.374933-13.653334-6.826667 0-10.24 0-13.653334 3.413334-13.7216 6.826667-13.7216 27.306667-3.447466 41.028266l85.572266 109.3632h-37.649066c-10.274133 0-17.134933 3.413333-23.9616 6.826667-6.826667 3.413333-10.274133 10.24-10.274134 17.066667 0 13.687467 17.1008 27.374933 34.235734 27.374933h51.3024v20.48h-54.749867c-10.24 0-17.066667 3.413333-23.927467 6.826667-6.8608 3.413333-10.274133 10.274133-10.274133 20.548266 0 13.653333 17.1008 27.306667 34.2016 27.306667h54.749867v51.268267c0 10.24 3.413333 17.1008 10.274133 23.927466 6.826667 6.826667 13.687467 10.24 20.548267 10.24 17.1008 0 30.788267-13.653333 30.788266-34.133333v-51.3024h58.197334c10.24 0 17.1008-3.413333 23.9616-6.826667 6.826667-3.413333 10.24-10.24 10.24-20.48 0-13.687467-13.653333-27.374933-34.2016-27.374933H540.672v-20.48h58.197333c10.24 0 17.1008-3.413333 23.9616-6.826667 6.826667-3.413333 10.24-10.274133 10.24-20.514133 0-13.687467-13.653333-27.3408-34.2016-27.3408h-37.649066l85.538133-109.397333c13.687467-10.24 10.274133-30.72-3.413333-37.5808z" p-id="24965"></path></svg>