<?xml version="1.0" standalone="no"?><!DOCTYPE svg PUBLIC "-//W3C//DTD SVG 1.1//EN" "http://www.w3.org/Graphics/SVG/1.1/DTD/svg11.dtd"><svg t="1558146575900" class="icon" style="" viewBox="0 0 1024 1024" version="1.1" xmlns="http://www.w3.org/2000/svg" p-id="1505" xmlns:xlink="http://www.w3.org/1999/xlink" width="200" height="200"><defs><style type="text/css"></style></defs><path d="M651.264 993.28c-12.288 0-22.528-10.24-22.528-22.528v-44.032l-6.144 1.024c-29.696 4.096-58.368 6.144-84.992 6.144-15.36 0-30.72-1.024-44.032-2.048H491.52l-35.84 45.056c-4.096 5.12-11.264 8.192-17.408 8.192H285.696c-12.288 0-22.528-10.24-22.528-22.528V851.968l-4.096-2.048C154.624 806.912 104.448 701.44 91.136 670.72l-1.024-2.048-61.44-26.624c-8.192-3.072-13.312-12.288-13.312-20.48V465.92c0-12.288 10.24-22.528 22.528-22.528H92.16l1.024-3.072c22.528-53.248 63.488-94.208 86.016-114.688l3.072-3.072-3.072-4.096c-49.152-67.584-33.792-115.712-31.744-121.856 2.048-6.144 7.168-11.264 13.312-13.312 24.576-9.216 52.224-13.312 82.944-13.312 72.704 0 141.312 26.624 159.744 34.816h2.048c7.168-1.024 14.336-1.024 21.504-2.048h2.048c12.288 0 21.504 9.216 22.528 21.504 0 6.144-1.024 12.288-5.12 16.384-4.096 4.096-9.216 7.168-15.36 8.192-9.216 1.024-18.432 1.024-27.648 2.048h-2.048c-3.072 0-6.144-1.024-9.216-2.048-1.024 0-72.704-32.768-147.456-32.768-18.432 0-34.816 2.048-51.2 6.144l-4.096 1.024v4.096c1.024 17.408 8.192 47.104 41.984 82.944 4.096 5.12 6.144 11.264 6.144 17.408-1.024 6.144-4.096 12.288-9.216 16.384-1.024 1.024-74.752 55.296-98.304 129.024-3.072 9.216-11.264 15.36-21.504 15.36H60.416v117.76l56.32 24.576c6.144 2.048 10.24 7.168 12.288 13.312 0 1.024 12.288 34.816 38.912 71.68 34.816 49.152 75.776 81.92 123.904 97.28 9.216 3.072 15.36 11.264 15.36 21.504v104.448h118.784l36.864-46.08c4.096-5.12 11.264-8.192 17.408-8.192h4.096c1.024 0 19.456 3.072 53.248 3.072 34.816 0 71.68-3.072 109.568-10.24h4.096c5.12 0 10.24 2.048 14.336 5.12 5.12 4.096 8.192 10.24 8.192 17.408v47.104h116.736l1.024-2.048c26.624-40.96 116.736-179.2 144.384-237.568 7.168-15.36 19.456-55.296 23.552-104.448 4.096-41.984 3.072-105.472-22.528-164.864-31.744-74.752-93.184-129.024-183.296-160.768-12.288-4.096-18.432-17.408-14.336-28.672 3.072-9.216 12.288-15.36 21.504-15.36 2.048 0 5.12 0 7.168 1.024 54.272 19.456 100.352 46.08 136.192 79.872 31.744 29.696 57.344 65.536 73.728 106.496 28.672 68.608 29.696 139.264 25.6 187.392-5.12 51.2-17.408 97.28-28.672 119.808-30.72 70.656-147.456 247.808-151.552 256-4.096 6.144-11.264 10.24-19.456 10.24H651.264z" p-id="1506"></path><path d="M285.696 535.552c-27.648 0-51.2-22.528-51.2-51.2s22.528-51.2 51.2-51.2 51.2 22.528 51.2 51.2-23.552 51.2-51.2 51.2z m-6.144-51.2v5.12h10.24v-10.24h-10.24v5.12z m437.248-122.88c-3.072 0-6.144-1.024-9.216-2.048C658.432 337.92 606.208 327.68 552.96 327.68c-45.056 0-73.728 8.192-73.728 8.192-2.048 1.024-4.096 1.024-6.144 1.024-10.24 0-19.456-7.168-21.504-16.384-2.048-6.144-1.024-12.288 2.048-17.408 3.072-5.12 8.192-9.216 13.312-11.264 1.024 0 13.312-4.096 33.792-6.144l10.24-1.024-7.168-8.192c-27.648-27.648-43.008-63.488-43.008-102.4 0-79.872 64.512-144.384 143.36-144.384S746.496 94.208 746.496 174.08c0 48.128-23.552 92.16-62.464 119.808l-8.192 6.144 10.24 3.072c13.312 4.096 27.648 9.216 40.96 15.36 11.264 5.12 16.384 18.432 12.288 29.696-5.12 8.192-13.312 13.312-22.528 13.312z m-112.64-286.72c-53.248 0-97.28 44.032-97.28 99.328s44.032 99.328 97.28 99.328 97.28-44.032 97.28-99.328-44.032-99.328-97.28-99.328z" p-id="1507"></path></svg>