<?xml version="1.0" standalone="no"?><!DOCTYPE svg PUBLIC "-//W3C//DTD SVG 1.1//EN" "http://www.w3.org/Graphics/SVG/1.1/DTD/svg11.dtd"><svg t="1558418726622" class="icon" style="" viewBox="0 0 1024 1024" version="1.1" xmlns="http://www.w3.org/2000/svg" p-id="1341" xmlns:xlink="http://www.w3.org/1999/xlink" width="200" height="200"><defs><style type="text/css"></style></defs><path d="M638.10713584 1006.58016098c0-49.38373943 0.15543297-115.63049619-0.04380304-162.10058276-0.1766275-37.73760505-8.10227409-45.87803038-45.18282258-46.03911514-55.14180839-0.22608369-110.28220418-0.20347518-165.42401257-0.00989096-37.79271302 0.13141047-44.97934741 6.8333794-45.579882 45.59118555-0.72911986 46.40367506-0.1766275 112.61651834-0.17662748 161.13972746-10.43234907 1.20389574-17.72919942 2.74409113-25.03735473 2.77659058-49.97438305 0.21054094-99.95583186 0.62455569-149.92456312-0.03249947-59.30316138-0.77857605-73.30621846-15.60966538-72.88655056-73.7145828 0.37021171-52.52488995-0.45216737-276.04251638 0.98770302-328.53914604 0.29249522-10.45919538 5.77926348-23.56357088 13.36861042-30.62303396 99.65203169-92.66887249 199.95405555-184.63688541 300.44400909-276.40001055 40.08887455-36.60153344 87.39829696-37.03674548 127.54793127-0.05510798 100.73864709 92.77343665 200.90360593 186.17001641 300.62628974 280.02582789 7.01565868 6.60164394 11.90047975 18.94439872 12.10395493 28.72958361 0.25999575 12.69035936 1.36356652 238.87012126 0.39847199 336.38848875-0.36455994 36.47294955-18.34810333 60.8871598-52.07272257 62.15040269C772.04758409 1008.3082888 706.68961934 1006.58016098 638.10713584 1006.58016098L638.10713584 1006.58016098z" p-id="1342"></path><path d="M500.38826523 12.63436784c49.11244012-0.09891101 74.69098087 16.19465582 97.66390949 38.4441164 88.51175868 85.69843082 177.1846021 171.25273223 265.74723095 256.90029425 40.87875417 39.53638219 81.65718475 79.18439431 122.45257065 118.80979795 4.32243775 4.20515602 8.61661382 8.47248578 12.6069911 12.99274556 22.70304053 25.71560577 25.75516962 53.31476957 8.40607426 74.92413032-18.29158275 22.77369125-54.94681157 28.10502655-82.23652343 11.3691833-7.25304732-4.45384822-13.79816929-10.27126432-20.02536095-16.1494402-100.8149496-95.30274765-201.62000962-190.60973447-302.23148405-286.13150004-74.48185391-70.71190853-103.00230917-71.28700941-178.24013064-1.38617502-100.36278224 93.24821253-199.92579389 187.36401979-301.07845709 279.74604884-14.26870599 13.03654997-34.70243129 21.9951152-53.77258873 26.42211711-25.03170155 5.80611117-45.7028155-6.9110959-57.36590661-29.98293415-11.71254732-23.16509888-7.05381132-45.54738252 9.46160141-64.8224291 9.47714554-11.06679573 20.65415721-20.71491697 31.33943629-30.70498964 124.00406959-115.93429635 248.18476805-231.65381258 371.97829806-347.81419124C451.05821977 30.89345113 479.34693958 12.96077653 500.38826523 12.63436784L500.38826523 12.63436784z" p-id="1343"></path></svg>