<?xml version="1.0" standalone="no"?><!DOCTYPE svg PUBLIC "-//W3C//DTD SVG 1.1//EN" "http://www.w3.org/Graphics/SVG/1.1/DTD/svg11.dtd"><svg t="1558146631585" class="icon" style="" viewBox="0 0 1024 1024" version="1.1" xmlns="http://www.w3.org/2000/svg" p-id="1271" xmlns:xlink="http://www.w3.org/1999/xlink" width="200" height="200"><defs><style type="text/css"></style></defs><path d="M185.0168931 342.45641833c77.6039907 0 143.10960645-52.75180167 162.57099291-124.27567408H971.54382592c24.40295547 0 44.18690634-19.78395086 44.18690633-44.18690633s-19.78395086-44.18690634-44.18690633-44.18690632H347.58788601c-19.46138645-71.52387239-84.96700221-124.27567408-162.57099291-124.27567408-92.8897145 0-168.46258042 75.57286591-168.46258041 168.4625804S92.1271786 342.45641833 185.0168931 342.45641833z m0-248.55134814c42.32811047 0 77.07080204 33.01351062 79.88256217 74.64052218-0.21946164 1.78662393-0.34613077 3.60270577-0.34613076 5.44824555s0.12666913 3.66162162 0.34613076 5.44824555c-2.81323303 41.62701156-37.55445169 74.64052219-79.88256217 74.6405222-44.16039419 0-80.08876773-35.92837354-80.08876773-80.08876775s35.92837354-80.08876773 80.08876773-80.08876773zM971.54382592 461.20872911h-126.85324362c-19.46138645-71.52387239-84.96700221-124.27567408-162.5709929-124.27567408S539.00998295 389.68485672 519.5485965 461.20872911H61.29355536c-24.40295547 0-44.18690634 19.78395086-44.18690633 44.18690634s19.78395086 44.18690634 44.18690633 44.18690633h458.25504114c19.46138645 71.52387239 84.96700221 124.27567408 162.5709929 124.27567408S825.22919585 621.10641418 844.6905823 549.58254178H971.54382592c24.40295547 0 44.18690634-19.78395086 44.18690633-44.18690633s-19.78395086-44.18690634-44.18690633-44.18690634z m-289.42423652 124.27567408c-44.16039419 0-80.08876773-35.92837354-80.08876774-80.08876774s35.92837354-80.08876773 80.08876774-80.08876775 80.08876773 35.92837354 80.08876774 80.08876775-35.92837354 80.08876773-80.08876774 80.08876774zM971.54382592 792.61052666H596.13923414c-19.46138645-71.52387239-84.96700221-124.27567408-162.57099289-124.27567408S290.45863479 721.08665424 270.99724835 792.61052666H61.29355536c-24.40295547 0-44.18690634 19.78395086-44.18690633 44.18690632s19.78395086 44.18690634 44.18690633 44.18690633h209.70369299c19.46138645 71.52387239 84.96700221 124.27567408 162.5709929 124.27567408S576.67784771 952.50821172 596.13923414 880.98433931H971.54382592c24.40295547 0 44.18690634-19.78395086 44.18690633-44.18690633s-19.78395086-44.18690634-44.18690633-44.18690632z m-537.97558467 124.27567406c-44.16039419 0-80.08876773-35.92837354-80.08876774-80.08876774s35.92837354-80.08876773 80.08876774-80.08876774c43.1706075 0 78.45237931 34.3391178 80.01364999 77.13560949-0.06480746 0.97653063-0.10899437 1.95895284-0.10899437 2.95315825s0.04418691 1.97662762 0.10899437 2.95315823c-1.56127069 42.79649168-36.8430425 77.13560949-80.01364999 77.13560951z" p-id="1272"></path></svg>