<?xml version="1.0" standalone="no"?><!DOCTYPE svg PUBLIC "-//W3C//DTD SVG 1.1//EN" "http://www.w3.org/Graphics/SVG/1.1/DTD/svg11.dtd"><svg t="1559633135018" class="icon" style="" viewBox="0 0 1024 1024" version="1.1" xmlns="http://www.w3.org/2000/svg" p-id="1851" xmlns:xlink="http://www.w3.org/1999/xlink" width="200" height="200"><defs><style type="text/css"></style></defs><path d="M480.46476254 1021.37236387C219.34852333 1021.37236387 7.65985487 809.68369542 7.65985487 548.56745619s211.68866845-472.91673474 472.80490767-472.91673474v472.80490765h472.80490767c0.11182709 261.2280663-211.68866845 472.91673474-472.80490767 472.91673477z m-72.79943115-400.11730361V155.38343175C221.58506499 189.60251921 80.34745895 352.4227523 80.34745895 548.56745619c0 220.97031635 179.14698725 400.1173036 400.11730359 400.1173036 196.14470389 0 358.96493699-141.23760605 393.18402446-327.31787245H407.66533139v-0.11182708z m582.05996793-145.48703521H553.26419369V2.96311738c261.11623922 0 472.80490767 211.68866845 472.80490767 472.80490767h-36.34380204zM625.95179776 82.58400061v320.3845933h320.72007453C916.81404109 240.48384205 788.5483767 112.5536589 625.95179776 82.58400061z" p-id="1852"></path></svg>