<?xml version="1.0" standalone="no"?><!DOCTYPE svg PUBLIC "-//W3C//DTD SVG 1.1//EN" "http://www.w3.org/Graphics/SVG/1.1/DTD/svg11.dtd"><svg t="1558146604399" class="icon" style="" viewBox="0 0 1024 1024" version="1.1" xmlns="http://www.w3.org/2000/svg" p-id="1271" xmlns:xlink="http://www.w3.org/1999/xlink" width="200" height="200"><defs><style type="text/css"></style></defs><path d="M1018.27708903 518.83645662v-24.85513483h-0.6628036l0.69257798-0.53076069-225.80242711-329.06903955a1.84730611 1.84730611 0 0 0-0.13722105-0.17735176c-55.1926392-63.85568933-104.95727945-65.31463395-120.69239214-63.86992924-0.05307607 0.00517815-0.10356306 0.00647269-0.15793367 0.0064727H373.66822937c-99.40629934 0-146.79416731 66.06676069-155.92713481 80.44908088L6.06208 491.41684148a1.8977931 1.8977931 0 0 0 0.39742325 2.56318577h-0.17476266c-1.048576 0-1.89908765 0.85051165-1.89908765 1.89908765v24.25058545h0.29774381v288.0710125c0 65.11009691 52.78220895 117.89230587 117.89230584 117.89230585h778.3540812c65.11009691 0 117.89230587-52.78220895 117.89230584-117.89230585V518.83645662h-0.5450006zM271.06571504 220.17741558l2.51787694-3.71661937a1.56639131 1.56639131 0 0 0 0.0543706-0.08543953c1.51072617-2.54894587 30.87085417-49.76852385 100.00955419-49.76852385h299.32443368c0.32751819 0 0.64856368 0.08414498 0.9333621 0.24466774l0.46732832 0.2640858c0.45956109 0.25890765 1.00585623 0.31586734 1.50813708 0.15663913l2.9256565-0.92947848c0.20583158-0.06602145 0.41684133-0.09709037 0.63302921-0.08932314 5.58334356 0.2200715 30.00480805 3.3450869 61.72099572 40.0115889 0.05307607 0.0608433 0.10356306 0.12686475 0.14887191 0.19418073L932.60842983 491.02330185c0.84792257 1.26217482-0.05566515 2.95931449-1.57674761 2.95931449h-233.78066649c-1.048576 0-1.89908765 0.85051165-1.89908763 1.89908764v185.46202548c0 1.048576-0.85051165 1.89908765-1.89908765 1.89908764H334.52139203c-1.048576 0-1.89908765-0.85051165-1.89908764-1.89908764V522.14788551h-0.26279127v-26.26747607c0-1.048576-0.85051165-1.89908765-1.89908764-1.89908765H91.89902917c-1.51719885 0-2.4220811-1.69196151-1.58063122-2.95413633l180.74731709-270.84976988z" p-id="1272"></path></svg>