<?xml version="1.0" standalone="no"?><!DOCTYPE svg PUBLIC "-//W3C//DTD SVG 1.1//EN" "http://www.w3.org/Graphics/SVG/1.1/DTD/svg11.dtd"><svg t="1561517312014" class="icon" viewBox="0 0 1024 1024" version="1.1" xmlns="http://www.w3.org/2000/svg" p-id="4088" xmlns:xlink="http://www.w3.org/1999/xlink" width="200" height="200"><defs><style type="text/css"></style></defs><path d="M85.682 340.637V150.465c0-35.526 29.257-64.783 66.873-64.783h190.172c14.628 0 29.257-8.36 37.616-20.898 8.359-12.54 8.359-29.257 0-41.796S359.445 2.09 342.727 2.09H152.555C68.963 2.09 2.09 68.963 2.09 152.555v190.172c0 14.628 8.359 29.257 20.898 37.616 12.539 8.359 29.257 8.359 41.796 0 12.538-10.45 20.898-22.988 20.898-39.706zM683.363 85.682h190.172c35.526 0 64.783 29.257 64.783 66.873v190.172c0 14.628 8.36 29.257 20.898 37.616 12.54 8.359 29.257 8.359 41.796 0s20.898-20.898 20.898-37.616V152.555c0-83.592-66.873-150.465-150.465-150.465H681.273c-14.628 0-29.257 8.359-37.616 20.898-8.359 12.539-8.359 29.257 0 41.796 10.45 12.538 22.988 20.898 39.706 20.898z m254.955 597.681v190.172c0 35.526-29.257 64.783-66.873 64.783H681.273c-14.628 0-29.257 8.36-37.616 20.898-8.359 12.54-8.359 29.257 0 41.796s20.898 20.898 37.616 20.898h190.172c83.592 0 150.465-66.873 150.465-150.465V681.273c0-14.628-8.359-29.257-20.898-37.616-12.539-8.359-29.257-8.359-41.796 0-12.538 10.45-20.898 22.988-20.898 39.706zM340.637 938.318H150.465c-35.526 0-64.783-29.257-64.783-66.873V681.273c0-14.628-8.36-29.257-20.898-37.616-12.54-8.359-29.257-8.359-41.796 0S2.09 664.555 2.09 681.273v190.172c0 83.592 66.873 150.465 150.465 150.465h190.172c14.628 0 29.257-8.359 37.616-20.898 8.359-12.539 8.359-29.257 0-41.796-10.45-12.538-22.988-20.898-39.706-20.898z m-62.694-384.522h512c14.628 0 29.257-8.36 37.616-20.898s8.36-29.257 0-41.796-20.898-20.898-37.616-20.898h-512c-14.629 0-29.257 8.36-37.616 20.898-8.36 12.539-8.36 29.257 0 41.796 8.359 14.629 20.897 20.898 37.616 20.898z" p-id="4089"></path></svg>